<?xml version="1.0" encoding="UTF-8"?>
<!DOCTYPE svg PUBLIC "-//W3C//DTD SVG 1.1//EN" "http://www.w3.org/Graphics/SVG/1.1/DTD/svg11.dtd">
<svg xmlns="http://www.w3.org/2000/svg" version="1.1" width="512px" height="512px" style="shape-rendering:geometricPrecision; text-rendering:geometricPrecision; image-rendering:optimizeQuality; fill-rule:evenodd; clip-rule:evenodd" xmlns:xlink="http://www.w3.org/1999/xlink">
<g><path style="opacity:0.973" fill="#fe0000" d="M 389.5,251.5 C 389.989,259.03 386.989,264.53 380.5,268C 370.246,269.426 359.912,269.926 349.5,269.5C 286.167,269.5 222.833,269.5 159.5,269.5C 150.161,269.666 140.827,269.5 131.5,269C 121.551,264.326 118.551,256.826 122.5,246.5C 162.057,177.058 201.89,107.725 242,38.5C 246.968,32.8849 253.135,31.0516 260.5,33C 263.562,34.0608 266.062,35.8941 268,38.5C 307.667,107.167 347.333,175.833 387,244.5C 388.411,246.65 389.245,248.984 389.5,251.5 Z M 254.5,74.5 C 266.14,94.437 277.807,114.437 289.5,134.5C 266.5,135.833 243.5,135.833 220.5,134.5C 232.289,114.722 243.623,94.7225 254.5,74.5 Z M 219.5,164.5 C 243.176,164.167 266.843,164.5 290.5,165.5C 278.667,185.833 266.833,206.167 255,226.5C 242.89,205.941 231.057,185.275 219.5,164.5 Z M 193.5,180.5 C 206.035,200.235 218.035,220.402 229.5,241C 206.16,241.833 182.826,241.666 159.5,240.5C 170.857,220.445 182.191,200.445 193.5,180.5 Z M 315.5,180.5 C 327.645,200.109 339.311,220.109 350.5,240.5C 327.174,241.666 303.84,241.833 280.5,241C 292.052,220.724 303.719,200.557 315.5,180.5 Z"/></g>
<g><path style="opacity:0.972" fill="#0000fe" d="M 122.5,246.5 C 118.551,256.826 121.551,264.326 131.5,269C 140.827,269.5 150.161,269.666 159.5,269.5C 191.182,324.202 222.848,378.869 254.5,433.5C 250.866,441.432 246.7,449.099 242,456.5C 238.51,466.897 241.676,474.231 251.5,478.5C 170.499,478.667 89.4993,478.5 8.5,478C 4.31481,476.312 1.31481,473.479 -0.5,469.5C -0.5,465.5 -0.5,461.5 -0.5,457.5C 40.2476,387.003 81.2476,316.669 122.5,246.5 Z M 133.5,283.5 C 145.14,303.437 156.807,323.437 168.5,343.5C 145.5,344.833 122.5,344.833 99.5,343.5C 111.289,323.722 122.623,303.722 133.5,283.5 Z M 98.5,373.5 C 122.176,373.167 145.843,373.5 169.5,374.5C 157.667,394.833 145.833,415.167 134,435.5C 121.89,414.941 110.057,394.275 98.5,373.5 Z M 72.5,389.5 C 85.0348,409.235 97.0348,429.402 108.5,450C 85.1595,450.833 61.8262,450.666 38.5,449.5C 49.8572,429.445 61.1905,409.445 72.5,389.5 Z M 194.5,389.5 C 206.645,409.109 218.311,429.109 229.5,449.5C 206.174,450.666 182.84,450.833 159.5,450C 171.052,429.724 182.719,409.557 194.5,389.5 Z"/></g>
<g><path style="opacity:0.973" fill="#00fe00" d="M 389.5,251.5 C 428.892,318.607 468.059,385.94 507,453.5C 510.72,461.023 510.22,468.19 505.5,475C 503.833,476 502.167,477 500.5,478C 417.501,478.5 334.501,478.667 251.5,478.5C 241.676,474.231 238.51,466.897 242,456.5C 246.7,449.099 250.866,441.432 254.5,433.5C 286.152,378.869 317.818,324.202 349.5,269.5C 359.912,269.926 370.246,269.426 380.5,268C 386.989,264.53 389.989,259.03 389.5,251.5 Z M 374.5,283.5 C 386.14,303.437 397.807,323.437 409.5,343.5C 386.5,344.833 363.5,344.833 340.5,343.5C 352.289,323.722 363.623,303.722 374.5,283.5 Z M 339.5,373.5 C 363.176,373.167 386.843,373.5 410.5,374.5C 398.667,394.833 386.833,415.167 375,435.5C 362.89,414.941 351.057,394.275 339.5,373.5 Z M 313.5,389.5 C 326.035,409.235 338.035,429.402 349.5,450C 326.16,450.833 302.826,450.666 279.5,449.5C 290.857,429.445 302.191,409.445 313.5,389.5 Z M 435.5,389.5 C 447.645,409.109 459.311,429.109 470.5,449.5C 447.174,450.666 423.84,450.833 400.5,450C 412.052,429.724 423.719,409.557 435.5,389.5 Z"/></g>
</svg>
